<?xml version="1.0" standalone="no"?>
<!DOCTYPE svg PUBLIC "-//W3C//DTD SVG 20010904//EN"
 "http://www.w3.org/TR/2001/REC-SVG-20010904/DTD/svg10.dtd">
<svg version="1.0" xmlns="http://www.w3.org/2000/svg"
 width="700.000000pt" height="700.000000pt" viewBox="0 0 700.000000 700.000000"
 preserveAspectRatio="xMidYMid meet">
<metadata>
Created by potrace 1.14, written by Peter Selinger 2001-2017
</metadata>
<g transform="translate(0.000000,700.000000) scale(0.100000,-0.100000)"
fill="#000000" stroke="none">
<path d="M2105 6305 c-382 -382 -695 -697 -695 -700 0 -3 628 -5 1395 -5
l1395 0 -1395 -1395 c-767 -767 -1397 -1395 -1400 -1395 -3 0 -5 628 -5 1395
l0 1395 -700 -700 -700 -700 0 -2100 0 -2100 2100 0 2100 0 695 695 c382 382
695 697 695 700 0 3 -625 5 -1390 5 -765 0 -1390 2 -1390 5 0 7 2778 2785
2785 2785 3 0 5 -628 5 -1395 l0 -1395 700 700 700 700 0 2100 0 2100 -2100 0
-2100 0 -695 -695z m695 -4205 l0 -700 -700 0 -700 0 0 700 0 700 700 0 700 0
0 -700z"/>
</g>
</svg>
